<svg aria-hidden="true" style="width:0;height:0;position:absolute;overflow:hidden" xmlns="http://www.w3.org/2000/svg"><defs><symbol id="icon-trident" viewBox="0 0 20 32"><path fill="#fff" style="fill:var(--color1,#fff)" d="M9.005 30.888a8.64 8.64 0 0 1-3.414-5.351H0V2.42c2.991 1.443 5.153 4.599 5.388 7.876l.846 6.493-.407-.045c-.893 0-1.676.812-1.676 1.608 0 .752.595 1.383 1.378 1.548l1.018.226c1.676-3.051 2.631-6.042 2.631-8.973 0-2.645-.36-5.291-.423-7.996 0-1.202.486-2.3 1.253-3.156.783.857 1.253 1.954 1.253 3.156 0 2.705-.423 5.351-.423 7.996 0 2.931.955 5.922 2.631 8.973l1.018-.226c.783-.165 1.378-.812 1.378-1.548 0-.812-.783-1.608-1.676-1.608l-.423.06.846-6.493c.423-3.277 2.396-6.448 5.388-7.876v23.117h-5.576c-.423 2.179-1.613 4.148-3.414 5.351-.423.286-.783.631-1.018 1.097-.219-.466-.579-.812-.987-1.112zM2.647 17.556c.235-.857.893-1.608 1.738-2.074l-.658-5.351a8.288 8.288 0 0 0-2.036-4.374v11.784h.955v.015zm2.819 6.373c0-.812.125-1.548.298-2.3l-.783-.18c-1.143-.346-2.036-1.203-2.334-2.3h-.955v4.78h3.774zm3.712 0c0-.977-.783-1.834-1.801-1.954-.172.631-.298 1.263-.298 1.954h2.099zm0 1.623H7.314c.298 1.263.955 2.42 1.864 3.397v-3.397zm2.631-5.005c-.72-1.262-1.378-2.585-1.801-3.968-.423 1.383-1.081 2.706-1.801 3.968.72.165 1.316.631 1.801 1.157.486-.526 1.081-.992 1.801-1.157zm1.143 3.382c0-.691-.125-1.323-.297-1.954-1.018.12-1.801.977-1.801 1.954h2.099zm-.235 1.623h-1.864v3.397c.908-.992 1.566-2.134 1.864-3.397zm5.623-1.623v-4.78h-.955c-.298 1.097-1.206 1.954-2.334 2.3l-.783.18c.172.752.298 1.488.298 2.3h3.774zm0-6.373V5.757c-1.081 1.202-1.864 2.706-2.036 4.374l-.658 5.351c.846.466 1.504 1.203 1.739 2.074h.955z"/></symbol><symbol id="icon-uil_cart" viewBox="0 0 32 32"><path d="M25.334 9.333h-4V8a5.332 5.332 0 1 0-10.666 0v1.333h-4a1.335 1.335 0 0 0-1.334 1.334v14.667a4.003 4.003 0 0 0 4 4h13.333a4.003 4.003 0 0 0 4-4V10.667a1.335 1.335 0 0 0-1.334-1.334zM13.334 8a2.668 2.668 0 0 1 5.334 0v1.333h-5.333V8zM24 25.333a1.335 1.335 0 0 1-1.334 1.334H9.333a1.335 1.335 0 0 1-1.334-1.334V12h2.667v1.333a1.335 1.335 0 0 0 2.277.943c.25-.251.39-.589.39-.943V12h5.333v1.333a1.335 1.335 0 0 0 2.277.943c.25-.251.391-.589.391-.943V12h2.667v13.333z"/></symbol><symbol id="icon-user" viewBox="0 0 32 32"><path fill="#f6f6f6" style="fill:var(--color1,#f6f6f6)" d="M32 16c0 8.837-7.163 16-16 16S0 24.837 0 16 7.163 0 16 0s16 7.163 16 16z"/><path fill="#4f2ee8" style="fill:var(--color2,#4f2ee8)" d="M10.523 22.847a5.477 5.477 0 1 1 10.954 0H10.522zM16 16.685c-2.27 0-4.108-1.838-4.108-4.108S13.73 8.469 16 8.469c2.27 0 4.108 1.838 4.108 4.108S18.27 16.685 16 16.685z"/></symbol><symbol id="icon-delete" viewBox="0 0 32 32"><path fill="#4f2ee8" style="fill:var(--color2,#4f2ee8)" d="M32 16c0 8.837-7.163 16-16 16S0 24.837 0 16 7.163 0 16 0s16 7.163 16 16z"/><path fill="none" stroke="#fff" style="stroke:var(--color3,#fff)" stroke-linejoin="round" stroke-linecap="round" stroke-width="1.684" d="M13.684 9.053h4.632m-9.263 2.315h13.895m-1.544 0-.541 8.12c-.081 1.218-.122 1.827-.385 2.289a2.322 2.322 0 0 1-1.002.938c-.478.232-1.089.232-2.31.232h-2.33c-1.221 0-1.832 0-2.31-.232a2.31 2.31 0 0 1-1.002-.938c-.263-.462-.304-1.071-.385-2.289l-.541-8.12m3.858 3.474v3.86m3.088-3.86v3.86"/></symbol><symbol id="icon-align-left" viewBox="0 0 32 32"><path stroke-linejoin="round" stroke-linecap="round" stroke-width="2.286" d="M22.667 13.333H4M28 8H4M28 18.667H4M22.667 24H4"/></symbol><symbol id="icon-close" viewBox="0 0 20 20"><path d="M10 8.586 2.929 1.515 1.515 2.929 8.586 10l-7.071 7.071 1.414 1.414L10 11.414l7.071 7.071 1.414-1.414L11.414 10l7.071-7.071-1.414-1.414L10 8.586z"/></symbol><symbol id="icon-lock" viewBox="0 0 24 24"><path d="M5 12h14c.276 0 .525.111.707.293S20 12.724 20 13v7c0 .276-.111.525-.293.707S19.276 21 19 21H5c-.276 0-.525-.111-.707-.293S4 20.276 4 20v-7c0-.276.111-.525.293-.707S4.724 12 5 12zm13-2V7c0-1.657-.673-3.158-1.757-4.243S13.657 1 12 1s-3.158.673-4.243 1.757S6 5.343 6 7v3H5a2.997 2.997 0 0 0-3 3v7a2.997 2.997 0 0 0 3 3h14a2.997 2.997 0 0 0 3-3v-7a2.997 2.997 0 0 0-3-3zM8 10V7c0-1.105.447-2.103 1.172-2.828S10.895 3 12 3s2.103.447 2.828 1.172S16 5.895 16 7v3z"/></symbol><symbol id="icon-mail" viewBox="0 0 24 24"><path d="m3 7.921 8.427 5.899c.34.235.795.246 1.147 0L21 7.921V18c0 .272-.11.521-.295.705S20.272 19 20 19H4c-.272 0-.521-.11-.705-.295S3 18.272 3 18zM1 5.983V18c0 .828.34 1.579.88 2.12S3.172 21 4 21h16c.828 0 1.579-.34 2.12-.88S23 18.828 23 18V5.982a2.995 2.995 0 0 0-.88-2.102A2.998 2.998 0 0 0 20 3H4c-.828 0-1.579.34-2.12.88A2.995 2.995 0 0 0 1 5.983zm19.894-.429L12 11.779 3.106 5.554a.999.999 0 0 1 .188-.259A.994.994 0 0 1 4 5h16a1.016 1.016 0 0 1 .893.554z"/></symbol><symbol id="icon-internetarchive" viewBox="0 0 32 32"><path d="M30.147 32H1.854v-1.453h28.293zm-1.067-4.24H2.973v2.013H29.08zm-.307-22.88H2.8v2.787h25.973zM15.787 0l-13.6 3.187.787.813h25.64l.72-.813zM4.947 26.947l.082.001c.446 0 .877-.064 1.284-.182l-.032.008c.213-2.32.333-6.533.333-9.16s-.12-6.667-.32-9.013a.241.241 0 0 0-.172-.2H6.12a4.616 4.616 0 0 0-1.117-.133H5a4.963 4.963 0 0 0-1.14.14l.034-.007a.24.24 0 0 0-.173.199v.001c-.213 2.347-.32 6.427-.32 9.013s.12 6.84.333 9.16c.363.108.78.172 1.212.173h.001zm7.08 0 .094.001a4.52 4.52 0 0 0 1.271-.182l-.032.008c.213-2.32.333-6.533.333-9.16s-.12-6.667-.32-9.013a.241.241 0 0 0-.172-.2h-.002a4.609 4.609 0 0 0-1.117-.134l-.087.001h.004a5.085 5.085 0 0 0-1.154.14l.034-.007a.24.24 0 0 0-.173.199v.001c-.2 2.347-.32 6.427-.32 9.013s.12 6.84.333 9.16c.37.11.796.174 1.236.174l.074-.001h-.004zm8.2 0 .094.001c.442 0 .868-.064 1.271-.182l-.032.008c.213-2.32.333-6.533.333-9.16s-.107-6.667-.32-9.013a.227.227 0 0 0-.225-.2l-.016.001h.001a4.58 4.58 0 0 0-1.106-.133c-.393.002-.775.05-1.14.14l.033-.007a.238.238 0 0 0-.186.199v.001c-.2 2.347-.32 6.427-.32 9.013s.12 6.84.347 9.16c.365.11.785.174 1.22.174h.049-.003zm6.906 0h.03c.44 0 .866-.063 1.268-.181l-.032.008c.213-2.32.333-6.533.333-9.16s-.107-6.667-.32-9.013a.241.241 0 0 0-.172-.2h-.002a4.58 4.58 0 0 0-1.106-.133 5.085 5.085 0 0 0-1.154.14l.034-.007a.24.24 0 0 0-.173.199v.001c-.2 2.347-.32 6.427-.32 9.013s.12 6.84.333 9.16c.37.11.795.174 1.235.174h.047-.002z"/></symbol><symbol id="icon-logo" viewBox="0 0 32 32"><path fill="#f6f6f6" style="fill:var(--color1,#f6f6f6)" d="m0 0 16.343 16.171L32 32V0H0z"/><path fill="#f6f6f6" style="fill:var(--color1,#f6f6f6)" d="M4.457 4.229 16.4 16.058l11.257 11.486h-23.2V4.23z"/><path fill="#4f2ee8" style="fill:var(--color2,#4f2ee8)" d="M27.733 27.618 15.79 15.789 4.533 4.303h23.2v23.314z"/><path fill="#4f2ee8" style="fill:var(--color2,#4f2ee8)" d="m9.257 9.029 13.6 13.6h-13.6v-13.6z"/><path fill="#f6f6f6" style="fill:var(--color1,#f6f6f6)" d="m9.257 9.029 13.6 13.6v-13.6h-13.6z"/></symbol><symbol id="icon-close" viewBox="0 0 32 32"><path stroke-linejoin="round" stroke-linecap="round" stroke-width="3.429" d="M24 8 8 24M8 8l16 16"/></symbol><symbol id="icon-Rectangle-5" viewBox="0 0 131 32"><path fill="#4f2ee8" style="fill:var(--color1,#4f2ee8)" d="M16 0h98.844c8.837 0 16 7.163 16 16s-7.163 16-16 16H16C7.163 32 0 24.837 0 16S7.163 0 16 0z"/></symbol><symbol id="icon-angle-down" viewBox="0 0 32 32"><path d="M15.053 17.867a1.334 1.334 0 0 0 1.894 0l6.107-6.12a1.334 1.334 0 1 1 1.894 1.88l-6.12 6.12a4.001 4.001 0 0 1-5.654 0l-6.12-6.12a1.337 1.337 0 0 1 .434-2.172 1.331 1.331 0 0 1 1.46.292l6.107 6.12z"/></symbol><symbol id="icon-arrow-right" viewBox="0 0 32 32"><path fill="none" stroke="#eac645" style="stroke:var(--color1,#eac645)" stroke-linejoin="round" stroke-linecap="round" stroke-width="3.2" d="M5.333 16h21.333m.001 0-8-8m8 8-8 8"/></symbol><symbol id="modal-card-close" viewBox="0 0 24 24"><path stroke="#000" stroke-linecap="round" stroke-linejoin="round" stroke-width="1.5" d="m20.572 2.571-18 18m0-18 18 18"/></symbol><symbol id="icon-cross" viewBox="0 0 32 32"><path d="M31.708 25.708 22 16l9.708-9.708a1 1 0 0 0 0-1.414L27.122.292a1 1 0 0 0-1.414-.001L16 9.999 6.292.291a.998.998 0 0 0-1.414.001L.292 4.878a1 1 0 0 0 0 1.414L10 16 .292 25.708a.999.999 0 0 0 0 1.414l4.586 4.586a1 1 0 0 0 1.414 0L16 22l9.708 9.708a1 1 0 0 0 1.414 0l4.586-4.586a.999.999 0 0 0 0-1.414z"/></symbol><symbol id="icon-Vector" viewBox="0 0 60 32"><path fill="#fff" style="fill:var(--color1,#fff)" d="M3.167 3h53.667L32.711 30.27c-.719.812-1.694 1.269-2.71 1.269s-1.991-.456-2.71-1.269L3.168 3z"/></symbol></defs></svg>